<svg width="16" height="16" xmlns="http://www.w3.org/2000/svg" xmlns:svg="http://www.w3.org/2000/svg" class="bi bi-images">
  <g class="layer">
    <title>Layer 1</title>
    <path d="m4.5,9a1.5,1.5 0 1 0 0,-3a1.5,1.5 0 0 0 0,3z" fill="#4495e5" id="svg_1"/>
    <path d="m14.05,13a2,2 0 0 1 -2,2l-10,0a2,2 0 0 1 -2,-2l0,-8a2,2 0 0 1 2,-2a2,2 0 0 1 2,-2l10,0a2,2 0 0 1 2,2l0,8a2,2 0 0 1 -2,2zm0,-11l-10,0a1,1 0 0 0 -1,1l9,0a2,2 0 0 1 2,2l0,7a1,1 0 0 0 1,-1l0,-8a1,1 0 0 0 -1,-1zm-12,2a1,1 0 0 0 -1,1l0,8l2.65,-2.35a0.5,0.5 0 0 1 0.63,-0.07l2.66,1.78l3.71,-3.71a0.5,0.5 0 0 1 0.57,-0.1l1.78,1.95l0,-5.5a1,1 0 0 0 -1,-1l-10,0z" fill="#59a1ea" id="svg_2" transform="matrix(1 0 0 1 0 0)"/>
  </g>
</svg>